<?xml version="1.0" encoding="UTF-8" standalone="no"?>
<!-- Created with Inkscape (http://www.inkscape.org/) -->

<svg
   xmlns:dc="http://purl.org/dc/elements/1.1/"
   xmlns:cc="http://creativecommons.org/ns#"
   xmlns:rdf="http://www.w3.org/1999/02/22-rdf-syntax-ns#"
   xmlns:svg="http://www.w3.org/2000/svg"
   xmlns="http://www.w3.org/2000/svg"
   xmlns:sodipodi="http://sodipodi.sourceforge.net/DTD/sodipodi-0.dtd"
   xmlns:inkscape="http://www.inkscape.org/namespaces/inkscape"
   width="51.947113mm"
   height="91.078247mm"
   viewBox="0 0 184.06457 322.7182"
   id="svg2"
   version="1.1"
   inkscape:version="0.91 r13725"
   sodipodi:docname="logo.svg">
  <defs
     id="defs4" />
  <sodipodi:namedview
     id="base"
     pagecolor="#ffffff"
     bordercolor="#666666"
     borderopacity="1.0"
     inkscape:pageopacity="0.0"
     inkscape:pageshadow="2"
     inkscape:zoom="1.4"
     inkscape:cx="-100.54706"
     inkscape:cy="28.737584"
     inkscape:document-units="px"
     inkscape:current-layer="layer1"
     showgrid="false"
     inkscape:window-width="1920"
     inkscape:window-height="1017"
     inkscape:window-x="-8"
     inkscape:window-y="-8"
     inkscape:window-maximized="1"
     fit-margin-top="0"
     fit-margin-left="0"
     fit-margin-right="0"
     fit-margin-bottom="0" />
  <metadata
     id="metadata7">
    <rdf:RDF>
      <cc:Work
         rdf:about="">
        <dc:format>image/svg+xml</dc:format>
        <dc:type
           rdf:resource="http://purl.org/dc/dcmitype/StillImage" />
        <dc:title></dc:title>
      </cc:Work>
    </rdf:RDF>
  </metadata>
  <g
     inkscape:label="Layer 1"
     inkscape:groupmode="layer"
     id="layer1"
     transform="translate(-156.23933,-220.19624)">
    <g
       id="g4140"
       transform="matrix(5.565169,0,0,5.565169,-713.25922,-2173.9162)">
      <path
         inkscape:connector-curvature="0"
         id="path4264"
         d="m 159.96162,430.19582 a 10.215093,10.215093 0 0 0 -3.72224,7.87582 10.215093,10.215093 0 0 0 6.12776,9.34782 l 5.28323,-5.28324 a 10.215093,10.215093 0 0 1 -7.88853,-9.93535 10.215093,10.215093 0 0 1 0.19978,-2.00505 z"
         style="fill:#87aade;fill-opacity:1;stroke:none" />
      <path
         style="fill:#87aade;fill-opacity:1;stroke:none"
         d="m 185.59153,430.19583 a 10.215093,10.215093 0 0 1 3.72224,7.87582 10.215093,10.215093 0 0 1 -6.12776,9.34782 l -5.28323,-5.28324 a 10.215093,10.215093 0 0 0 7.88853,-9.93535 10.215093,10.215093 0 0 0 -0.19978,-2.00505 z"
         id="path4288"
         inkscape:connector-curvature="0" />
      <g
         id="text4290"
         style="font-style:normal;font-weight:normal;font-size:58.46860886px;line-height:125%;font-family:sans-serif;letter-spacing:0px;word-spacing:0px;fill:#214478;fill-opacity:1;stroke:none;stroke-width:1px;stroke-linecap:butt;stroke-linejoin:miter;stroke-opacity:1">
        <path
           id="path4138"
           style="font-style:normal;font-variant:normal;font-weight:normal;font-stretch:normal;font-family:REZ;-inkscape-font-specification:REZ;fill:#214478"
           d="m 172.74734,439.41947 q 2.74803,0 5.08677,1.05243 2.39721,0.99397 4.20974,2.80649 1.81253,1.75406 2.80649,4.15128 1.05244,2.33874 1.05244,5.08676 0,2.68956 -1.05244,5.08677 -0.99396,2.39722 -2.80649,4.20974 -1.81253,1.81253 -4.20974,2.86497 -2.33874,0.99396 -5.08677,0.99396 l -7.89326,0 0,10.52435 -5.20371,0 0,-23.67979 q 0,-2.74802 0.99397,-5.08676 1.05243,-2.39722 2.80649,-4.15128 1.81253,-1.81252 4.20974,-2.80649 2.39721,-1.05243 5.08677,-1.05243 z m 0,21.0487 q 1.63712,0 3.09884,-0.58469 1.46171,-0.64316 2.51415,-1.69559 1.1109,-1.1109 1.69559,-2.57262 0.64315,-1.46171 0.64315,-3.09884 0,-1.63712 -0.64315,-3.04036 -0.58469,-1.46172 -1.69559,-2.51415 -1.05244,-1.11091 -2.51415,-1.69559 -1.46172,-0.64316 -3.09884,-0.64316 -1.63712,0 -3.09884,0.64316 -1.40324,0.58468 -2.51415,1.69559 -1.05243,1.05243 -1.69559,2.51415 -0.58468,1.40324 -0.58468,3.04036 l 0,7.95174 7.89326,0 0,0 z"
           inkscape:connector-curvature="0" />
      </g>
    </g>
    <g
       style="font-style:normal;font-weight:normal;font-size:40px;line-height:125%;font-family:sans-serif;letter-spacing:0px;word-spacing:0px;fill:#214478;fill-opacity:1;stroke:none;stroke-width:1px;stroke-linecap:butt;stroke-linejoin:miter;stroke-opacity:1"
       id="text4146"
       transform="matrix(1.6195836,0,0,1.6195836,-157.55728,-307.14793)">
      <path
         d="m 208.81076,499.70476 q 1.88,0 3.48,0.72 1.64,0.68 2.88,1.92 1.24,1.2 1.92,2.84 0.72,1.6 0.72,3.48 0,1.84 -0.72,3.48 -0.68,1.64 -1.92,2.88 -1.24,1.24 -2.88,1.96 -1.6,0.68 -3.48,0.68 l -5.4,0 0,7.2 -3.56,0 0,-16.2 q 0,-1.88 0.68,-3.48 0.72,-1.64 1.92,-2.84 1.24,-1.24 2.88,-1.92 1.64,-0.72 3.48,-0.72 z m 0,14.4 q 1.12,0 2.12,-0.4 1,-0.44 1.72,-1.16 0.76,-0.76 1.16,-1.76 0.44,-1 0.44,-2.12 0,-1.12 -0.44,-2.08 -0.4,-1 -1.16,-1.72 -0.72,-0.76 -1.72,-1.16 -1,-0.44 -2.12,-0.44 -1.12,0 -2.12,0.44 -0.96,0.4 -1.72,1.16 -0.72,0.72 -1.16,1.72 -0.4,0.96 -0.4,2.08 l 0,5.44 5.4,0 0,0 z"
         style="font-style:normal;font-variant:normal;font-weight:normal;font-stretch:normal;font-family:REZ;-inkscape-font-specification:REZ;fill:#214478;fill-opacity:1"
         id="path4151"
         inkscape:connector-curvature="0" />
      <path
         d="m 218.99139,499.62476 3.52,0 0,17.96 -3.52,0 0,-17.96 0,0 z"
         style="font-style:normal;font-variant:normal;font-weight:normal;font-stretch:normal;font-family:REZ;-inkscape-font-specification:REZ;fill:#214478;fill-opacity:1"
         id="path4153"
         inkscape:connector-curvature="0" />
      <path
         d="m 226.35701,502.26476 q 1.32,-1.32 2.96,-1.96 1.68,-0.68 3.4,-0.68 1.72,0 3.36,0.68 1.68,0.64 3,1.96 l 1.24,1.24 -2.48,2.52 -1.28,-1.24 q -0.8,-0.8 -1.8,-1.2 -1,-0.4 -2.04,-0.4 -1.04,0 -2.04,0.4 -1,0.4 -1.8,1.2 -0.8,0.76 -1.2,1.76 -0.4,1 -0.4,2.04 0,1.04 0.4,2.04 0.4,1 1.2,1.8 1.6,1.6 3.84,1.6 1.08,0 2.08,-0.4 1,-0.4 1.76,-1.2 l 1.28,-1.24 2.48,2.52 -1.24,1.24 q -1.32,1.32 -3,2 -1.64,0.64 -3.36,0.64 -1.72,0 -3.4,-0.64 -1.64,-0.68 -2.96,-2 -1.32,-1.32 -1.96,-2.96 -0.64,-1.64 -0.64,-3.36 0,-1.76 0.64,-3.4 0.64,-1.64 1.96,-2.96 z"
         style="font-style:normal;font-variant:normal;font-weight:normal;font-stretch:normal;font-family:REZ;-inkscape-font-specification:REZ;fill:#214478;fill-opacity:1"
         id="path4155"
         inkscape:connector-curvature="0" />
      <path
         d="m 259.64576,501.38476 q 0,2.24 -1,4.12 -0.96,1.84 -2.64,3.08 1.68,1.24 2.64,3.12 1,1.88 1,4.08 l 0,1.8 -3.56,0 0,-1.8 q 0,-1.12 -0.44,-2.08 -0.4,-1 -1.16,-1.72 -0.72,-0.76 -1.72,-1.16 -0.96,-0.44 -2.08,-0.44 -1.12,0 -2.12,0.44 -1,0.4 -1.76,1.16 -0.72,0.72 -1.16,1.72 -0.4,0.96 -0.4,2.08 l 0,1.8 -3.56,0 0,-1.8 0,-23.36 3.56,0 0,16.24 q 1.16,-0.88 2.52,-1.36 1.4,-0.48 2.92,-0.48 1.12,0 2.08,-0.4 1,-0.44 1.72,-1.16 0.76,-0.76 1.16,-1.76 0.44,-1 0.44,-2.12 l 0,-1.76 3.56,0 0,1.76 0,0 z"
         style="font-style:normal;font-variant:normal;font-weight:normal;font-stretch:normal;font-family:REZ;-inkscape-font-specification:REZ;fill:#214478;fill-opacity:1"
         id="path4157"
         inkscape:connector-curvature="0" />
      <path
         d="m 276.98639,499.62476 0,3.56 -10.84,0 q -0.76,0 -1.28,0.52 -0.52,0.52 -0.52,1.28 0,0.76 0.52,1.32 0.52,0.52 1.28,0.52 l 7.2,0 q 1.12,0 2.08,0.44 1,0.4 1.72,1.12 0.76,0.72 1.16,1.72 0.44,0.96 0.44,2.08 0,1.12 -0.44,2.12 -0.4,0.96 -1.16,1.72 -0.72,0.72 -1.72,1.16 -0.96,0.4 -2.08,0.4 l -10.8,0 0,-3.56 10.8,0 q 0.8,0 1.32,-0.52 0.52,-0.52 0.52,-1.32 0,-0.76 -0.52,-1.28 -0.52,-0.52 -1.32,-0.52 l -7.2,0 q -1.12,0 -2.12,-0.4 -0.96,-0.44 -1.68,-1.16 -0.72,-0.76 -1.16,-1.72 -0.4,-1 -0.4,-2.12 0,-1.12 0.4,-2.08 0.44,-1 1.16,-1.72 0.72,-0.72 1.68,-1.12 1,-0.44 2.12,-0.44 l 10.84,0 z"
         style="font-style:normal;font-variant:normal;font-weight:normal;font-stretch:normal;font-family:REZ;-inkscape-font-specification:REZ;fill:#214478;fill-opacity:1"
         id="path4159"
         inkscape:connector-curvature="0" />
      <path
         d="m 293.96889,511.26476 2.52,2.52 -1.24,1.24 q -1.28,1.28 -2.92,1.96 -1.64,0.68 -3.44,0.68 -1.8,0 -3.44,-0.68 -1.64,-0.68 -2.92,-1.96 -1.32,-1.32 -1.96,-2.96 -0.64,-1.68 -0.64,-3.4 0,-1.72 0.64,-3.36 0.64,-1.64 1.96,-2.96 1.32,-1.32 2.96,-1.96 1.68,-0.68 3.4,-0.68 1.72,0 3.36,0.68 1.68,0.64 3,1.96 l 1.24,1.24 -9.96,9.96 q 1.52,0.76 3.2,0.52 1.72,-0.28 3,-1.56 l 1.24,-1.24 z m -8.92,-6.44 q -1.6,1.6 -1.6,3.84 0,1.24 0.56,2.36 0.48,-0.48 1.44,-1.44 1,-1 2.08,-2.08 1.12,-1.12 2.12,-2.12 1.04,-1 1.6,-1.56 -1.52,-0.76 -3.24,-0.52 -1.68,0.24 -2.96,1.52 z"
         style="font-style:normal;font-variant:normal;font-weight:normal;font-stretch:normal;font-family:REZ;-inkscape-font-specification:REZ;fill:#214478;fill-opacity:1"
         id="path4161"
         inkscape:connector-curvature="0" />
      <path
         d="m 297.74139,492.42476 3.56,0 0,25.16 -3.56,0 0,-25.16 0,0 z"
         style="font-style:normal;font-variant:normal;font-weight:normal;font-stretch:normal;font-family:REZ;-inkscape-font-specification:REZ;fill:#214478;fill-opacity:1"
         id="path4163"
         inkscape:connector-curvature="0" />
    </g>
    <rect
       style="fill:#87aade;fill-opacity:1;stroke:none"
       id="rect4169"
       width="5.6978917"
       height="5.6978917"
       x="197.11894"
       y="494.03403" />
  </g>
</svg>
